# xmcd
#
# Track frame offsets: 
#        150
#        13517
#        27272
#        42997
#        54980
#        66297
#        78640
#        90320
#        103030
#        114517
#        128897
#        141465
#        155295
#        165327
#        177767
#        191065
#        205015
#        229512
#        238652
#        251910
#
# Disc length: 3575 seconds
#
# Revision: 0
# Processed by: cddbd v1.5.2PL0 Copyright (c) Steve Scherf et al.
# Submitted via: ExactAudioCopy v0.99pb3
#
DISCID=070df514
DTITLE=Bobby Bare - All American Boy
DYEAR=1988
DGENRE=Country
TTITLE0=Detroit City
TTITLE1=Miller's Cave
TTITLE2=(Margie's At) The Lincoln Park Inn
TTITLE3=Come Sundown
TTITLE4=Please Don't Tell Me How The Story Ends
TTITLE5=Streets Of Baltimore
TTITLE6=Shame On Me
TTITLE7=Four Strong Words
TTITLE8=Daddy, What If
TTITLE9=All American Boy
TTITLE10=500 Miles Away From Home
TTITLE11=Ride Me Down Easy
TTITLE12=Abilene
TTITLE13=Green, Green Grass Of Home
TTITLE14=Wolverton Mountain
TTITLE15=Marie Laveau
TTITLE16=The Winner
TTITLE17=Drop Kick Me, Jesus
TTITLE18=The Mermaid Song
TTITLE19=Up Against The Wall, Redneck
EXTD=
EXTT0=
EXTT1=
EXTT2=
EXTT3=
EXTT4=
EXTT5=
EXTT6=
EXTT7=
EXTT8=
EXTT9=
EXTT10=
EXTT11=
EXTT12=
EXTT13=
EXTT14=
EXTT15=
EXTT16=
EXTT17=
EXTT18=
EXTT19=
PLAYORDER=
